<svg width="120" height="120" viewBox="0 0 120 120" fill="none" xmlns="http://www.w3.org/2000/svg">
<g clip-path="url(#clip0_1_8690)">
<path d="M115.156 30.2296V89.7688C115.156 92.7219 113.457 95.4121 110.788 96.6824L63.3772 119.253C62.3347 119.751 61.205 119.999 60.0781 119.999C58.9512 119.999 57.8241 119.751 56.7816 119.253L9.36852 96.6824C6.69969 95.4121 5 92.7219 5 89.7688V30.2296C5 28.6954 5.4575 27.2324 6.27523 26.0019C7.02664 24.8633 8.08719 23.924 9.36992 23.3162L56.7816 0.743564C58.8669 -0.249482 61.2896 -0.249482 63.3774 0.743564L110.789 23.3162C112.072 23.9237 113.13 24.8633 113.881 26.0019C114.699 27.2324 115.156 28.6951 115.156 30.2296Z" fill="#E53935"/>
<path d="M113.881 26.0019C113.13 24.8633 112.072 23.924 110.789 23.3162L63.3771 0.743564C61.2893 -0.249482 58.8668 -0.249482 56.7813 0.743564L56.4556 0.898721L103.542 23.3162C104.824 23.9237 105.882 24.8633 106.634 26.0019C107.451 27.2324 107.909 28.6951 107.909 30.2296V89.7688C107.909 92.7219 106.209 95.4121 103.541 96.6824L56.4556 119.098L56.7813 119.253C57.8241 119.751 58.9512 119.999 60.0781 119.999C61.2049 119.999 62.3346 119.751 63.3771 119.253L110.788 96.6824C113.457 95.4121 115.156 92.7219 115.156 89.7688V30.2296C115.156 28.6951 114.699 27.2324 113.881 26.0019Z" fill="#D32F2F"/>
<path d="M60.0781 51.6175V119.999C58.9512 119.999 57.8241 119.751 56.7816 119.253L9.36852 96.6824C6.69969 95.4121 5 92.722 5 89.7688V30.2296C5 28.6954 5.4575 27.2324 6.27523 26.002L60.0781 51.6175Z" fill="#F44336"/>
<path d="M115.156 30.2296V89.7705C115.156 92.691 113.49 95.3587 110.868 96.6454C110.843 96.658 110.814 96.6709 110.789 96.6836L63.3772 119.254C62.3347 119.751 61.205 119.999 60.0781 119.999V51.6175L113.881 26.002C114.699 27.2324 115.156 28.6952 115.156 30.2296Z" fill="#D32F2F"/>
<path d="M113.881 26.002L107.789 28.9026C107.865 29.3364 107.909 29.7794 107.909 30.2296V89.7705C107.909 92.691 106.243 95.3587 103.621 96.6454C103.595 96.658 103.567 96.6709 103.542 96.6836L60.0781 117.374V119.999C61.205 119.999 62.3347 119.751 63.3772 119.253L110.789 96.6833C110.814 96.6707 110.843 96.6578 110.868 96.6452C113.49 95.3584 115.156 92.6908 115.156 89.7702V30.2296C115.156 28.6952 114.699 27.2324 113.881 26.002Z" fill="#C62828"/>
<path d="M95.9907 72.4658C96.4545 69.0362 94.781 65.9788 92.2529 65.637C89.7249 65.2951 87.2995 67.7983 86.8358 71.2279C86.372 74.6575 88.0455 77.7149 90.5736 78.0567C93.1017 78.3985 95.527 75.8954 95.9907 72.4658Z" fill="#F1F1F1"/>
<path d="M45.1216 67.9669C47.6571 67.8273 49.5581 64.9115 49.3678 61.4542C49.1774 57.9969 46.9678 55.3074 44.4324 55.447C41.8969 55.5865 39.9959 58.5024 40.1862 61.9597C40.3765 65.417 42.5862 68.1065 45.1216 67.9669Z" fill="#F1F1F1"/>
<path d="M18.8255 90.7111C21.3609 90.5715 23.262 87.6556 23.0716 84.1983C22.8813 80.741 20.6716 78.0515 18.1362 78.1911C15.6008 78.3307 13.6997 81.2465 13.8901 84.7038C14.0804 88.1611 16.2901 90.8507 18.8255 90.7111Z" fill="#F1F1F1"/>
<path d="M38.1153 29.0108C41.5726 28.8204 44.2622 26.6108 44.1226 24.0753C43.983 21.5399 41.0671 19.6388 37.6098 19.8292C34.1525 20.0195 31.463 22.2292 31.6026 24.7646C31.7422 27.3 34.658 29.2011 38.1153 29.0108Z" fill="#F1F1F1"/>
<path d="M59.8204 18.2727C63.2777 18.0824 65.9672 15.8727 65.8276 13.3373C65.6881 10.8019 62.7722 8.90081 59.3149 9.09115C55.8576 9.28149 53.1681 11.4912 53.3077 14.0266C53.4473 16.562 56.3631 18.4631 59.8204 18.2727Z" fill="#F1F1F1"/>
<path d="M82.5575 29.7549C86.0148 29.5646 88.7043 27.3549 88.5647 24.8195C88.4251 22.284 85.5093 20.383 82.052 20.5733C78.5947 20.7637 75.9052 22.9733 76.0447 25.5088C76.1843 28.0442 79.1002 29.9453 82.5575 29.7549Z" fill="#F1F1F1"/>
<path d="M61.3631 39.7266C64.8204 39.5363 67.51 37.3266 67.3704 34.7912C67.2308 32.2557 64.3149 30.3547 60.8576 30.545C57.4003 30.7353 54.7108 32.945 54.8504 35.4804C54.99 38.0159 57.9058 39.9169 61.3631 39.7266Z" fill="#F1F1F1"/>
</g>
<defs>
<clipPath id="clip0_1_8690">
<rect width="120" height="120" fill="white"/>
</clipPath>
</defs>
</svg>
